<svg height="512pt" viewBox="0 0 512.00042 512" width="512pt" xmlns="http://www.w3.org/2000/svg" xmlns:xlink="http://www.w3.org/1999/xlink"><linearGradient id="a" gradientTransform="matrix(.328185 0 0 -.328185 .000372 484.055692)" gradientUnits="userSpaceOnUse" x1="228.263" x2="1331.8458" y1="144.3688" y2="1247.9515"><stop offset="0" stop-color="#41dfd0"/><stop offset="1" stop-color="#ee83ef"/></linearGradient><path d="m437.0625 74.46875c-28.589844-28.777344-63.671875-50.273438-102.292969-62.675781l-3.863281-1.1875c-5.011719-1.527344-10.3125 1.300781-11.839844 6.3125s1.296875 10.316406 6.3125 11.84375l3.535156 1.109375c124.546876 40.304687 192.835938 173.945312 152.527344 298.488281-7.855468 24.28125-19.582031 47.128906-34.722656 67.667969-14.488281-6.75-31.628906-3.949219-43.214844 7.058594-14.882812 14.792968-14.957031 38.851562-.167968 53.734374 14.792968 14.882813 38.851562 14.957032 53.734374.167969 13.136719-13.054687 14.949219-33.675781 4.289063-48.820312 75.839844-101.847657 65.492187-243.910157-24.296875-333.699219zm6.714844 368.878906c-7.503906 7.171875-19.320313 7.171875-26.824219 0-7.410156-7.40625-7.410156-19.417968-.003906-26.824218 7.40625-7.410157 19.417969-7.410157 26.828125-.003907s7.410156 19.417969.003906 26.824219c0 .003906-.003906.003906-.003906.003906zm-291.5625-411.789062c-2.007813-4.835938.285156-10.386719 5.121094-12.398438 6.03125-2.511718 12.246093-4.824218 18.449218-6.867187 4.976563-1.636719 10.335938 1.070312 11.972656 6.046875 1.636719 4.976562-1.070312 10.339844-6.046874 11.976562-5.746094 1.894532-11.492188 4.03125-17.070313 6.355469-1.160156.488281-2.410156.734375-3.671875.730469-3.828125-.003906-7.285156-2.308594-8.753906-5.84375zm110.582031-22.707032c.351563-5.222656 4.867187-9.175781 10.09375-8.8320308 6.476563.4296878 13.070313 1.1132808 19.574219 2.0312498 5.191406.738281 8.796875 5.542969 8.058594 10.730469-.738282 5.191406-5.542969 8.796875-10.730469 8.058594-6.035157-.863282-12.140625-1.488282-18.15625-1.894532-5.226563-.347656-9.183594-4.863281-8.839844-10.089843zm-56.605469 4.960938c-.847656-5.167969 2.652344-10.046875 7.820313-10.898438h.003906c6.402344-1.050781 12.96875-1.898437 19.523437-2.464843 5.226563-.4609378 9.835938 3.402343 10.296876 8.628906.460937 5.230469-3.402344 9.839844-8.628907 10.300781-6.082031.53125-12.167969 1.300782-18.105469 2.277344-.515624.089844-1.035156.136719-1.558593.132812-4.648438-.007812-8.609375-3.382812-9.351563-7.976562zm99.402344 483.515625c.847656 5.167969-2.648438 10.042969-7.816406 10.898437-6.457032 1.0625-13.03125 1.894532-19.546875 2.445313-.277344.015625-.550781.015625-.824219 0-5.238281.226563-9.667969-3.839844-9.894531-9.078125-.226563-5.238281 3.839843-9.664062 9.078125-9.890625 6.03125-.523437 12.121094-1.28125 18.105468-2.265625 5.101563-.894531 9.964844 2.519531 10.855469 7.625.015625.085938.03125.175781.042969.265625zm53.988281-17.710937c2.011719 4.835937-.273437 10.390624-5.109375 12.40625h-.003906c-6.070312 2.515624-12.332031 4.820312-18.46875 6.847656-4.941406 1.742187-10.355469-.855469-12.09375-5.796875-1.738281-4.941407.855469-10.355469 5.796875-12.09375.128906-.046875.257813-.089844.390625-.128907 5.6875-1.898437 11.464844-4.011718 17.070312-6.355468 4.835938-2.015625 10.390626.265625 12.40625 5.101562.003907.007813.007813.015625.011719.019532zm-110.605469 22.621093c-.332031 4.992188-4.484374 8.863281-9.484374 8.851563h-.632813c-6.566406-.425782-13.15625-1.128906-19.597656-2.058594-5.167969-.839844-8.679688-5.714844-7.839844-10.882812.824219-5.046876 5.492187-8.535157 10.5625-7.886719 5.949219.863281 12.046875 1.496093 18.125 1.894531 5.230469.332031 9.199219 4.835938 8.871094 10.0625 0 .007812 0 .015625-.003907.019531zm-62.539062-19.917969c-4.199219-1.261718-8.375-2.667968-12.53125-4.210937-122.824219-45.339844-185.632812-181.667969-140.292969-304.488281 7.703125-20.863282 18.300781-40.535156 31.484375-58.445313 18.800782 9.152344 41.460938 1.328125 50.613282-17.472656 7.070312-14.53125 4.144531-31.945313-7.289063-43.363281-15.003906-14.339844-38.636719-14.339844-53.644531 0-13.046875 12.996094-14.820313 33.503906-4.203125 48.542968-84.371094 113.511719-60.75 273.929688 52.757812 358.300782 19.574219 14.550781 41.125 26.230468 64 34.683594 4.476563 1.648437 8.988281 3.167968 13.535157 4.550781.898437.28125 1.835937.421875 2.78125.417969 5.238281-.007813 9.476562-4.257813 9.46875-9.496094-.003907-4.164063-2.722657-7.835938-6.699219-9.054688zm-118.257812-414.566406c7.277343-7.539062 19.289062-7.746094 26.824218-.46875s7.742188 19.289063.464844 26.824219c-.152344.15625-.308594.3125-.464844.464844-7.503906 7.167969-19.320312 7.167969-26.824218 0-7.40625-7.40625-7.40625-19.414063 0-26.820313zm338.871093 267.070313c26.203125-49.601563 26.203125-108.945313 0-158.546875-.101562-.257813-.238281-.484375-.351562-.730469-44.09375-83.242187-147.324219-114.976563-230.566407-70.878906-30.191406 15.992187-54.882812 40.6875-70.875 70.878906-.117187.246094-.25.472656-.351562.730469-26.203125 49.601562-26.203125 108.945312 0 158.546875.101562.257812.234375.484375.351562.730469 44.09375 83.242187 147.324219 114.976562 230.5625 70.878906 30.195313-15.992188 54.886719-40.6875 70.878907-70.878906.085937-.246094.25-.472657.351562-.730469zm-214.527343-216.945313-6.136719 20.488282c-3.15625 10.527343-5.839844 21.148437-8.136719 31.820312h-47.640625c15.546875-22.699219 36.9375-40.773438 61.914063-52.308594zm-72.792969 71.277344h54.945312c-3.125 18.820312-4.921875 37.835938-5.371093 56.910156h-64.597657c1.207031-19.773437 6.3125-39.113281 15.023438-56.910156zm-15.023438 75.878906h64.597657c.449218 19.074219 2.246093 38.089844 5.371093 56.910156h-54.945312c-8.710938-17.796874-13.816407-37.136718-15.023438-56.910156zm25.902344 75.878906h47.640625c2.296875 10.671876 4.980469 21.292969 8.136719 31.820313l6.136719 20.488281c-24.976563-11.535156-46.367188-29.609375-61.914063-52.308594zm115.882813 65.910157c-10.71875-.644531-21.339844-2.433594-31.679688-5.339844l-10.25-34.195313c-2.628906-8.734374-4.894531-17.535156-6.886719-26.375h48.816407zm0-84.878907h-52.402344c-3.277344-18.804687-5.160156-37.828124-5.632813-56.910156h58.035157zm0-75.878906h-58.035157c.472657-19.082031 2.355469-38.105468 5.632813-56.910156h52.402344zm0-75.878906h-48.816407c1.992188-8.839844 4.257813-17.640625 6.886719-26.378906l10.25-34.191406c10.339844-2.90625 20.960938-4.695313 31.679688-5.339844zm160.757812 75.878906h-66.03125c-.453125-19.070312-2.242188-38.089844-5.359375-56.910156h56.367187c8.707032 17.796875 13.8125 37.136719 15.023438 56.910156zm-25.902344-75.878906h-49.074218c-2.296876-10.671875-4.96875-21.292969-8.128907-31.820312l-6.390625-21.292969c25.6875 11.5 47.699219 29.882812 63.59375 53.113281zm-115.882812-65.910156c10.183594.625 20.28125 2.28125 30.132812 4.941406l10.375 34.59375c2.617188 8.734375 4.882813 17.535156 6.875 26.375h-47.382812zm0 84.878906h50.96875c3.28125 18.804688 5.164062 37.828125 5.632812 56.910156h-56.601562zm40.507812 178.132812-10.375 34.59375c-9.851562 2.660157-19.949218 4.316407-30.132812 4.941407v-65.910157h47.421875c-2.03125 8.839844-4.296875 17.640626-6.914063 26.375zm-40.507812-45.34375v-56.910156h56.601562c-.46875 19.082032-2.351562 38.105469-5.632812 56.910156zm52.289062 72.082032 6.390625-21.292969c3.160157-10.527344 5.832031-21.148437 8.128907-31.820313h49.074218c-15.894531 23.230469-37.90625 41.613282-63.59375 53.113282zm18.105469-72.082032c3.117187-18.820312 4.90625-37.839843 5.359375-56.910156h66.03125c-1.210938 19.773438-6.316406 39.113282-15.023438 56.910156zm0 0" fill="url(#a)"/></svg>