<svg version="1.1" id="Capa_1" xmlns="http://www.w3.org/2000/svg" xmlns:xlink="http://www.w3.org/1999/xlink" x="0px" y="0px"
	 viewBox="0 0 20 20" style="enable-background:new 0 0 20 20;" xml:space="preserve">
	<path fill="#ffffff" class="st0" d="M10,0C9.8,0,9.7,0.2,9.7,0.3v3.4C9.7,4,9.8,4.1,10,4.1s0.3-0.2,0.3-0.3V0.3C10.3,0.2,10.2,0,10,0z"/>
	<path fill="#ffffff" class="st0" d="M10,15.9c-0.2,0-0.3,0.2-0.3,0.3v3.4c0,0.2,0.2,0.3,0.3,0.3s0.3-0.2,0.3-0.3v-3.4C10.3,16,10.2,15.9,10,15.9z
		"/>
	<path fill="#ffffff" class="st0" d="M19.7,9.7h-3.4c-0.2,0-0.3,0.2-0.3,0.3s0.2,0.3,0.3,0.3h3.4c0.2,0,0.3-0.2,0.3-0.3S19.8,9.7,19.7,9.7z"/>
	<path fill="#ffffff" class="st0" d="M4.1,10c0-0.2-0.2-0.3-0.3-0.3H0.3C0.2,9.7,0,9.8,0,10s0.2,0.3,0.3,0.3h3.4C4,10.3,4.1,10.2,4.1,10z"/>
	<path fill="#ffffff" class="st0" d="M14.6,14.1c-0.1-0.1-0.4-0.1-0.5,0c-0.1,0.1-0.1,0.4,0,0.5l2.4,2.4c0.1,0.1,0.2,0.1,0.2,0.1
		c0.1,0,0.2,0,0.2-0.1c0.1-0.1,0.1-0.4,0-0.5L14.6,14.1z"/>
	<path fill="#ffffff" class="st0" d="M3.4,2.9c-0.1-0.1-0.4-0.1-0.5,0c-0.1,0.1-0.1,0.4,0,0.5l2.4,2.4C5.4,5.9,5.5,6,5.6,6c0.1,0,0.2,0,0.2-0.1
		C6,5.7,6,5.5,5.8,5.4L3.4,2.9z"/>
	<path fill="#ffffff" class="st0" d="M5.4,14.1l-2.4,2.4c-0.1,0.1-0.1,0.4,0,0.5c0.1,0.1,0.2,0.1,0.2,0.1c0.1,0,0.2,0,0.2-0.1l2.4-2.4
		c0.1-0.1,0.1-0.4,0-0.5C5.7,14,5.5,14,5.4,14.1z"/>
	<path fill="#ffffff" class="st0" d="M14.4,6c0.1,0,0.2,0,0.2-0.1l2.4-2.4c0.1-0.1,0.1-0.4,0-0.5s-0.4-0.1-0.5,0l-2.4,2.4c-0.1,0.1-0.1,0.4,0,0.5
		C14.2,5.9,14.3,6,14.4,6z"/>
</svg>
