<svg height="512pt" viewBox="-4 0 512 512.00001" width="512pt" xmlns="http://www.w3.org/2000/svg" xmlns:xlink="http://www.w3.org/1999/xlink"><linearGradient id="a" gradientTransform="matrix(.295264 0 0 -.295264 -4.266563 503.355667)" gradientUnits="userSpaceOnUse" x1="533.6742" x2="1882.9886" y1="163.1493" y2="1512.464"><stop offset="0" stop-color="#41dfd0"/><stop offset="1" stop-color="#ee83ef"/></linearGradient><path d="m51.199219 307.199219h102.402343c18.851563 0 34.132813-15.28125 34.132813-34.132813v-17.066406c0-18.851562-15.28125-34.132812-34.132813-34.132812v-11.265626c-.027343-12.652343-10.304687-22.890624-22.960937-22.863281-10.484375.019531-19.617187 7.15625-22.171875 17.324219l-.957031 3.875c-1.902344 7.605469-8.734375 12.9375-16.570313 12.929688h-39.742187c-4.710938 0-8.53125 3.820312-8.53125 8.53125v68.269531c0 4.710937 3.820312 8.53125 8.53125 8.53125zm72.867187-94.128907.957032-3.867187c.792968-3.128906 3.972656-5.023437 7.101562-4.230469 2.578125.652344 4.390625 2.96875 4.410156 5.628906v19.796876c0 4.714843 3.820313 8.535156 8.53125 8.535156h8.535156c9.425782 0 17.066407 7.640625 17.066407 17.066406v17.066406c0 9.425782-7.640625 17.066406-17.066407 17.066406h-59.734374v-51.328124c14.535156-1.230469 26.679687-11.578126 30.199218-25.734376zm-64.332031 25.863282h17.066406v51.199218h-17.066406zm51.199219 128c61.265625 0 110.933594-49.667969 110.933594-110.933594s-49.667969-110.933594-110.933594-110.933594-110.933594 49.667969-110.933594 110.933594c.0703125 61.238281 49.695312 110.863281 110.933594 110.933594zm0-204.800782c51.839844 0 93.867187 42.027344 93.867187 93.867188s-42.027343 93.867188-93.867187 93.867188-93.867188-42.027344-93.867188-93.867188c.0625-51.816406 42.050782-93.804688 93.867188-93.867188zm315.734375-96.597656c-.027344-12.652344-10.304688-22.890625-22.960938-22.863281-10.484375.019531-19.617187 7.15625-22.171875 17.324219l-.957031 3.875c-1.898437 7.605468-8.734375 12.9375-16.570313 12.929687h-39.742187c-4.710937 0-8.53125 3.820313-8.53125 8.53125v68.269531c0 4.710938 3.820313 8.53125 8.53125 8.53125h102.402344c18.851562 0 34.132812-15.28125 34.132812-34.132812v-17.066406c0-18.851563-15.28125-34.132813-34.132812-34.132813zm-93.867188 28.332032h17.066407v51.199218h-17.066407zm110.933594 17.066406v17.066406c0 9.425781-7.640625 17.066406-17.066406 17.066406h-59.734375v-51.328125c14.539062-1.230469 26.679687-11.578125 30.199218-25.734375l.957032-3.867187c.792968-3.128907 3.972656-5.023438 7.101562-4.230469 2.578125.652344 4.390625 2.96875 4.410156 5.628906v19.796875c0 4.714844 3.820313 8.535157 8.53125 8.535157h8.535157c9.425781 0 17.066406 7.640624 17.066406 17.066406zm-59.734375-110.933594c-61.265625 0-110.933594 49.667969-110.933594 110.933594s49.667969 110.933594 110.933594 110.933594 110.933594-49.667969 110.933594-110.933594c-.070313-61.238282-49.695313-110.8632815-110.933594-110.933594zm0 204.800781c-51.839844 0-93.867188-42.027343-93.867188-93.867187s42.027344-93.867188 93.867188-93.867188 93.867188 42.027344 93.867188 93.867188c-.0625 51.816406-42.050782 93.804687-93.867188 93.867187zm-59.734375 247.464844h102.402344c18.851562 0 34.132812-15.28125 34.132812-34.132813v-17.066406c0-18.851562-15.28125-34.132812-34.132812-34.132812v-11.265625c-.027344-12.652344-10.304688-22.890625-22.960938-22.863281-10.484375.019531-19.617187 7.15625-22.171875 17.328124l-.957031 3.871094c-1.898437 7.605469-8.734375 12.9375-16.570313 12.929688h-39.742187c-4.710937 0-8.53125 3.820312-8.53125 8.535156v68.265625c0 4.710937 3.820313 8.53125 8.53125 8.53125zm72.867187-94.128906.957032-3.867188c.792968-3.128906 3.972656-5.023437 7.101562-4.230469 2.578125.652344 4.390625 2.96875 4.410156 5.628907v19.796875c0 4.714844 3.820313 8.535156 8.53125 8.535156h8.535157c9.425781 0 17.066406 7.640625 17.066406 17.066406v17.066406c0 9.425782-7.640625 17.066407-17.066406 17.066407h-59.734375v-51.328125c14.539062-1.230469 26.679687-11.578125 30.199218-25.734375zm-64.332031 25.863281h17.066407v51.199219h-17.066407zm51.199219 128c61.265625 0 110.933594-49.667969 110.933594-110.933594s-49.667969-110.933594-110.933594-110.933594-110.933594 49.667969-110.933594 110.933594c.070313 61.238282 49.695313 110.863282 110.933594 110.933594zm0-204.800781c51.839844 0 93.867188 42.027343 93.867188 93.867187s-42.027344 93.867188-93.867188 93.867188-93.867188-42.027344-93.867188-93.867188c.0625-51.816406 42.050782-93.804687 93.867188-93.867187zm-128-42.664063h-17.066406v-17.066406h17.066406zm17.066406-17.066406h17.066406v17.066406h-17.066406zm213.332032 238.929688h17.070312v17.066406h-17.070312zm-187.730469-204.796876h17.066406v17.066407h-17.066406zm17.066406-51.203124h-17.066406v-17.066407h17.066406zm187.734375-204.796876h-17.070312v-17.066406h17.070312zm0 0" fill="url(#a)"/></svg>